<?xml version="1.0" standalone="no"?>
<!DOCTYPE svg PUBLIC "-//W3C//DTD SVG 20010904//EN"
 "http://www.w3.org/TR/2001/REC-SVG-20010904/DTD/svg10.dtd">
<svg version="1.0" xmlns="http://www.w3.org/2000/svg"
 width="700.000000pt" height="700.000000pt" viewBox="0 0 700.000000 700.000000"
 preserveAspectRatio="xMidYMid meet">
<metadata>
Created by potrace 1.14, written by Peter Selinger 2001-2017
</metadata>
<g transform="translate(0.000000,700.000000) scale(0.100000,-0.100000)"
fill="#000000" stroke="none">
<path d="M3278 6995 c-1 -1 -42 -5 -89 -9 -47 -4 -95 -8 -106 -10 -11 -3 -44
-7 -74 -11 -102 -12 -217 -34 -344 -67 -44 -11 -89 -22 -101 -24 -91 -17 -415
-140 -579 -220 -180 -87 -448 -247 -555 -331 -8 -6 -51 -40 -95 -74 -342 -266
-650 -623 -875 -1014 -47 -83 -170 -327 -170 -340 0 -3 -9 -24 -20 -48 -57
-123 -157 -435 -186 -582 -2 -11 -10 -54 -19 -95 -29 -147 -36 -199 -52 -370
-15 -160 -8 -606 11 -707 2 -10 7 -43 10 -73 20 -169 74 -408 137 -600 82
-250 193 -494 313 -694 36 -60 66 -113 66 -117 0 -4 3 -9 8 -11 4 -2 29 -36
57 -77 40 -61 93 -132 142 -196 149 -190 350 -389 588 -583 54 -44 236 -172
244 -172 5 0 11 -3 13 -7 2 -5 16 -15 32 -24 28 -16 32 -16 90 9 75 32 451
220 526 263 281 161 518 316 745 487 77 59 151 116 165 128 14 12 63 54 110
93 243 207 576 537 726 721 16 19 31 37 34 40 17 16 149 182 226 285 240 318
434 635 619 1003 52 105 95 194 95 197 0 2 16 39 35 81 19 41 35 78 35 80 0 3
8 24 18 47 11 23 34 80 51 127 18 47 37 94 42 105 4 11 31 88 58 170 76 228
148 490 187 679 2 11 12 63 23 115 19 91 24 118 36 194 3 17 10 56 15 85 5 29
9 56 8 60 -1 4 1 25 5 47 6 39 10 70 21 170 19 170 24 243 32 450 l6 170 -108
72 c-384 253 -787 420 -1242 514 -53 11 -113 22 -132 24 -19 3 -46 7 -60 10
-13 2 -52 7 -86 11 -33 3 -74 8 -90 10 -32 5 -540 14 -546 9z"/>
<path d="M6687 4920 c-3 -8 -27 -78 -52 -155 -66 -197 -159 -436 -231 -593
-19 -40 -34 -75 -34 -78 0 -10 -187 -381 -245 -484 -406 -733 -961 -1409
-1595 -1945 -63 -53 -126 -107 -140 -118 -196 -166 -689 -501 -942 -641 -258
-142 -368 -197 -638 -319 -154 -69 -412 -168 -610 -234 -58 -19 -112 -37 -120
-40 -18 -6 23 -25 187 -88 96 -37 293 -100 342 -110 9 -2 54 -12 101 -24 109
-26 200 -43 299 -57 25 -3 57 -8 71 -10 163 -25 682 -25 842 1 13 2 46 7 73
10 71 10 87 13 115 18 14 3 43 8 65 12 115 21 314 74 455 122 557 188 1090
542 1480 982 36 41 70 79 76 85 6 6 48 61 94 121 150 197 277 405 383 628 26
53 47 99 47 102 0 2 11 28 24 57 57 127 151 421 182 573 17 81 54 301 59 350
4 33 9 71 11 85 9 47 11 525 3 605 -15 165 -21 220 -24 225 -2 3 -6 30 -10 60
-9 76 -69 340 -96 425 -12 39 -24 77 -25 86 -4 20 -95 259 -122 319 -13 30
-22 40 -25 30z"/>
</g>
</svg>
